<mxfile host="app.diagrams.net" modified="2022-04-05T13:46:39.791Z" agent="5.0 (Windows NT 10.0; Win64; x64) AppleWebKit/537.36 (KHTML, like Gecko) Chrome/100.0.4896.75 Safari/537.36" etag="pUSUd3PVFwePJVTwuipT" version="17.4.0" type="github">
  <diagram id="p3QgddB8L3kQDNcubE_-" name="Page-1">
    <mxGraphModel dx="2220" dy="1198" grid="1" gridSize="10" guides="1" tooltips="1" connect="1" arrows="1" fold="1" page="1" pageScale="1" pageWidth="3300" pageHeight="4681" math="0" shadow="0">
      <root>
        <mxCell id="0" />
        <mxCell id="1" parent="0" />
        <mxCell id="08tBGvb-4x_lPmY4FbBJ-32" value="Model" style="shape=umlFrame;whiteSpace=wrap;html=1;strokeColor=#000000;" parent="1" vertex="1">
          <mxGeometry x="905" y="320" width="230" height="570" as="geometry" />
        </mxCell>
        <mxCell id="08tBGvb-4x_lPmY4FbBJ-7" value="&lt;p style=&quot;margin: 0px ; margin-top: 4px ; text-align: center&quot;&gt;&lt;b&gt;MainActivity&lt;/b&gt;&lt;/p&gt;" style="verticalAlign=top;align=left;overflow=fill;fontSize=12;fontFamily=Helvetica;html=1;" parent="1" vertex="1">
          <mxGeometry x="520" y="210" width="120" height="30" as="geometry" />
        </mxCell>
        <mxCell id="-3Wh7YaULNcuLUQDVxip-1" value="&lt;p style=&quot;margin: 0px ; margin-top: 4px ; text-align: center&quot;&gt;&lt;b&gt;MoviesDataService&lt;/b&gt;&lt;/p&gt;&lt;p style=&quot;margin: 0px ; margin-top: 4px ; text-align: center&quot;&gt;&lt;b&gt;&lt;br&gt;&lt;/b&gt;&lt;/p&gt;" style="verticalAlign=top;align=left;overflow=fill;fontSize=12;fontFamily=Helvetica;html=1;" vertex="1" parent="1">
          <mxGeometry x="930" y="480" width="160" height="30" as="geometry" />
        </mxCell>
        <mxCell id="08tBGvb-4x_lPmY4FbBJ-8" value="&lt;p style=&quot;margin: 0px ; margin-top: 4px ; text-align: center&quot;&gt;&lt;b&gt;HomeFragment&lt;/b&gt;&lt;/p&gt;&lt;p style=&quot;margin: 0px ; margin-left: 4px&quot;&gt;&lt;br&gt;&lt;/p&gt;" style="verticalAlign=top;align=left;overflow=fill;fontSize=12;fontFamily=Helvetica;html=1;" parent="1" vertex="1">
          <mxGeometry x="500" y="480" width="160" height="30" as="geometry" />
        </mxCell>
        <mxCell id="-3Wh7YaULNcuLUQDVxip-2" value="&lt;p style=&quot;margin: 0px ; margin-top: 4px ; text-align: center&quot;&gt;&lt;b&gt;APIRequestHandler&lt;/b&gt;&lt;/p&gt;&lt;p style=&quot;margin: 0px ; margin-top: 4px ; text-align: center&quot;&gt;&lt;b&gt;&lt;br&gt;&lt;/b&gt;&lt;/p&gt;" style="verticalAlign=top;align=left;overflow=fill;fontSize=12;fontFamily=Helvetica;html=1;" vertex="1" parent="1">
          <mxGeometry x="930" y="410" width="160" height="30" as="geometry" />
        </mxCell>
        <mxCell id="08tBGvb-4x_lPmY4FbBJ-9" value="&lt;p style=&quot;margin: 0px ; margin-top: 4px ; text-align: center&quot;&gt;&lt;b&gt;RatingFragment&lt;/b&gt;&lt;/p&gt;&lt;p style=&quot;margin: 0px ; margin-left: 4px&quot;&gt;&lt;br&gt;&lt;/p&gt;" style="verticalAlign=top;align=left;overflow=fill;fontSize=12;fontFamily=Helvetica;html=1;" parent="1" vertex="1">
          <mxGeometry x="500" y="540" width="160" height="30" as="geometry" />
        </mxCell>
        <mxCell id="08tBGvb-4x_lPmY4FbBJ-10" value="fragments" style="shape=umlFrame;whiteSpace=wrap;html=1;strokeColor=#000000;" parent="1" vertex="1">
          <mxGeometry x="465" y="330" width="230" height="570" as="geometry" />
        </mxCell>
        <mxCell id="08tBGvb-4x_lPmY4FbBJ-11" value="&lt;p style=&quot;margin: 0px ; margin-top: 4px ; text-align: center&quot;&gt;&lt;b&gt;FavoriteFragment&lt;/b&gt;&lt;/p&gt;&lt;p style=&quot;margin: 0px ; margin-left: 4px&quot;&gt;&lt;br&gt;&lt;/p&gt;" style="verticalAlign=top;align=left;overflow=fill;fontSize=12;fontFamily=Helvetica;html=1;" parent="1" vertex="1">
          <mxGeometry x="500" y="610" width="160" height="30" as="geometry" />
        </mxCell>
        <mxCell id="08tBGvb-4x_lPmY4FbBJ-12" value="&lt;p style=&quot;margin: 0px ; margin-top: 4px ; text-align: center&quot;&gt;&lt;b&gt;ProfileFragment&lt;/b&gt;&lt;/p&gt;&lt;p style=&quot;margin: 0px ; margin-left: 4px&quot;&gt;&lt;br&gt;&lt;/p&gt;" style="verticalAlign=top;align=left;overflow=fill;fontSize=12;fontFamily=Helvetica;html=1;" parent="1" vertex="1">
          <mxGeometry x="500" y="670" width="160" height="30" as="geometry" />
        </mxCell>
        <mxCell id="08tBGvb-4x_lPmY4FbBJ-13" value="&lt;p style=&quot;margin: 0px ; margin-top: 4px ; text-align: center&quot;&gt;&lt;b&gt;AccountFragment&lt;/b&gt;&lt;/p&gt;" style="verticalAlign=top;align=left;overflow=fill;fontSize=12;fontFamily=Helvetica;html=1;" parent="1" vertex="1">
          <mxGeometry x="500" y="370" width="160" height="30" as="geometry" />
        </mxCell>
        <mxCell id="08tBGvb-4x_lPmY4FbBJ-14" value="&lt;p style=&quot;margin: 0px ; margin-top: 4px ; text-align: center&quot;&gt;&lt;b&gt;CreateAcountFragment&lt;/b&gt;&lt;/p&gt;" style="verticalAlign=top;align=left;overflow=fill;fontSize=12;fontFamily=Helvetica;html=1;" parent="1" vertex="1">
          <mxGeometry x="500" y="420" width="160" height="30" as="geometry" />
        </mxCell>
        <mxCell id="08tBGvb-4x_lPmY4FbBJ-15" value="&lt;p style=&quot;margin: 0px ; margin-top: 4px ; text-align: center&quot;&gt;&lt;b&gt;MovieDescriptionFragment&lt;/b&gt;&lt;/p&gt;&lt;p style=&quot;margin: 0px ; margin-top: 4px ; text-align: center&quot;&gt;&lt;b&gt;&lt;br&gt;&lt;/b&gt;&lt;/p&gt;" style="verticalAlign=top;align=left;overflow=fill;fontSize=12;fontFamily=Helvetica;html=1;" parent="1" vertex="1">
          <mxGeometry x="500" y="730" width="160" height="30" as="geometry" />
        </mxCell>
        <mxCell id="08tBGvb-4x_lPmY4FbBJ-16" value="" style="endArrow=open;endFill=1;endSize=12;html=1;rounded=0;exitX=0.5;exitY=1;exitDx=0;exitDy=0;entryX=0.5;entryY=0.004;entryDx=0;entryDy=0;entryPerimeter=0;" parent="1" source="08tBGvb-4x_lPmY4FbBJ-7" target="08tBGvb-4x_lPmY4FbBJ-10" edge="1">
          <mxGeometry width="160" relative="1" as="geometry">
            <mxPoint x="500" y="340" as="sourcePoint" />
            <mxPoint x="660" y="340" as="targetPoint" />
          </mxGeometry>
        </mxCell>
        <mxCell id="08tBGvb-4x_lPmY4FbBJ-22" value="&lt;p style=&quot;margin: 0px ; margin-top: 4px ; text-align: center&quot;&gt;&lt;b&gt;DataBaseManager&lt;/b&gt;&lt;/p&gt;" style="verticalAlign=top;align=left;overflow=fill;fontSize=12;fontFamily=Helvetica;html=1;" parent="1" vertex="1">
          <mxGeometry x="1295" y="500" width="160" height="30" as="geometry" />
        </mxCell>
        <mxCell id="08tBGvb-4x_lPmY4FbBJ-24" value="&lt;p style=&quot;margin: 0px ; margin-top: 4px ; text-align: center&quot;&gt;&lt;b&gt;SearchSortFilterMovies&lt;/b&gt;&lt;/p&gt;&lt;p style=&quot;margin: 0px ; margin-top: 4px ; text-align: center&quot;&gt;&lt;b&gt;&lt;br&gt;&lt;/b&gt;&lt;/p&gt;" style="verticalAlign=top;align=left;overflow=fill;fontSize=12;fontFamily=Helvetica;html=1;" parent="1" vertex="1">
          <mxGeometry x="920" y="440" width="160" height="30" as="geometry" />
        </mxCell>
        <mxCell id="08tBGvb-4x_lPmY4FbBJ-25" value="&lt;p style=&quot;margin: 0px ; margin-top: 4px ; text-align: center&quot;&gt;&lt;b&gt;MoviesModel&lt;/b&gt;&lt;/p&gt;&lt;p style=&quot;margin: 0px ; margin-top: 4px ; text-align: center&quot;&gt;&lt;b&gt;&lt;br&gt;&lt;/b&gt;&lt;/p&gt;&lt;p style=&quot;margin: 0px ; margin-top: 4px ; text-align: center&quot;&gt;&lt;b&gt;&lt;br&gt;&lt;/b&gt;&lt;/p&gt;" style="verticalAlign=top;align=left;overflow=fill;fontSize=12;fontFamily=Helvetica;html=1;" parent="1" vertex="1">
          <mxGeometry x="920" y="490" width="160" height="30" as="geometry" />
        </mxCell>
        <mxCell id="08tBGvb-4x_lPmY4FbBJ-26" value="&lt;p style=&quot;margin: 0px ; margin-top: 4px ; text-align: center&quot;&gt;&lt;b&gt;AccountModel&lt;/b&gt;&lt;/p&gt;&lt;p style=&quot;margin: 0px ; margin-top: 4px ; text-align: center&quot;&gt;&lt;b&gt;&lt;br&gt;&lt;/b&gt;&lt;/p&gt;&lt;p style=&quot;margin: 0px ; margin-top: 4px ; text-align: center&quot;&gt;&lt;b&gt;&lt;br&gt;&lt;/b&gt;&lt;/p&gt;" style="verticalAlign=top;align=left;overflow=fill;fontSize=12;fontFamily=Helvetica;html=1;" parent="1" vertex="1">
          <mxGeometry x="920" y="540" width="160" height="30" as="geometry" />
        </mxCell>
        <mxCell id="08tBGvb-4x_lPmY4FbBJ-27" value="" style="endArrow=block;endSize=16;endFill=0;html=1;rounded=0;edgeStyle=orthogonalEdgeStyle;entryX=0.5;entryY=1;entryDx=0;entryDy=0;exitX=1.004;exitY=0.056;exitDx=0;exitDy=0;exitPerimeter=0;" parent="1" edge="1">
          <mxGeometry width="160" relative="1" as="geometry">
            <mxPoint x="695.0600000000002" y="355.91999999999996" as="sourcePoint" />
            <mxPoint x="774.1400000000001" y="240" as="targetPoint" />
            <Array as="points">
              <mxPoint x="774.1400000000001" y="354" />
            </Array>
          </mxGeometry>
        </mxCell>
        <mxCell id="08tBGvb-4x_lPmY4FbBJ-28" value="Fragment" style="swimlane;fontStyle=1;align=center;verticalAlign=top;childLayout=stackLayout;horizontal=1;startSize=26;horizontalStack=0;resizeParent=1;resizeParentMax=0;resizeLast=0;collapsible=1;marginBottom=0;strokeColor=#000000;" parent="1" vertex="1" collapsed="1">
          <mxGeometry x="720" y="210" width="100" height="26" as="geometry">
            <mxRectangle x="-510" y="34" width="160" height="86" as="alternateBounds" />
          </mxGeometry>
        </mxCell>
        <mxCell id="08tBGvb-4x_lPmY4FbBJ-29" value="+ field: type" style="text;strokeColor=none;fillColor=none;align=left;verticalAlign=top;spacingLeft=4;spacingRight=4;overflow=hidden;rotatable=0;points=[[0,0.5],[1,0.5]];portConstraint=eastwest;" parent="08tBGvb-4x_lPmY4FbBJ-28" vertex="1">
          <mxGeometry y="26" width="100" height="26" as="geometry" />
        </mxCell>
        <mxCell id="08tBGvb-4x_lPmY4FbBJ-30" value="" style="line;strokeWidth=1;fillColor=none;align=left;verticalAlign=middle;spacingTop=-1;spacingLeft=3;spacingRight=3;rotatable=0;labelPosition=right;points=[];portConstraint=eastwest;" parent="08tBGvb-4x_lPmY4FbBJ-28" vertex="1">
          <mxGeometry y="52" width="100" height="8" as="geometry" />
        </mxCell>
        <mxCell id="08tBGvb-4x_lPmY4FbBJ-31" value="+ method(type): type" style="text;strokeColor=none;fillColor=none;align=left;verticalAlign=top;spacingLeft=4;spacingRight=4;overflow=hidden;rotatable=0;points=[[0,0.5],[1,0.5]];portConstraint=eastwest;" parent="08tBGvb-4x_lPmY4FbBJ-28" vertex="1">
          <mxGeometry y="60" width="100" height="26" as="geometry" />
        </mxCell>
        <mxCell id="IunxA3ghlTLjCbQmhph9-1" value="&lt;b&gt;RatingModel&lt;/b&gt;" style="html=1;" vertex="1" parent="1">
          <mxGeometry x="920" y="590" width="160" height="30" as="geometry" />
        </mxCell>
        <mxCell id="IunxA3ghlTLjCbQmhph9-3" value="IDatabase" style="swimlane;fontStyle=1;childLayout=stackLayout;horizontal=1;startSize=26;fillColor=none;horizontalStack=0;resizeParent=1;resizeParentMax=0;resizeLast=0;collapsible=1;marginBottom=0;hachureGap=4;pointerEvents=0;" vertex="1" parent="1">
          <mxGeometry x="835" y="1000" width="320" height="230" as="geometry">
            <mxRectangle x="55" y="760" width="90" height="26" as="alternateBounds" />
          </mxGeometry>
        </mxCell>
        <mxCell id="IunxA3ghlTLjCbQmhph9-4" value="+ getMovies() : ArrayList&lt;Movie&gt;" style="text;strokeColor=none;fillColor=none;align=left;verticalAlign=top;spacingLeft=4;spacingRight=4;overflow=hidden;rotatable=0;points=[[0,0.5],[1,0.5]];portConstraint=eastwest;" vertex="1" parent="IunxA3ghlTLjCbQmhph9-3">
          <mxGeometry y="26" width="320" height="24" as="geometry" />
        </mxCell>
        <mxCell id="IunxA3ghlTLjCbQmhph9-10" value="+ getFavourite() : ArrayList&lt;Movie&gt;" style="text;strokeColor=none;fillColor=none;align=left;verticalAlign=top;spacingLeft=4;spacingRight=4;overflow=hidden;rotatable=0;points=[[0,0.5],[1,0.5]];portConstraint=eastwest;" vertex="1" parent="IunxA3ghlTLjCbQmhph9-3">
          <mxGeometry y="50" width="320" height="24" as="geometry" />
        </mxCell>
        <mxCell id="IunxA3ghlTLjCbQmhph9-11" value="+ getRatings() : ArrayList&lt;Rating&gt;" style="text;strokeColor=none;fillColor=none;align=left;verticalAlign=top;spacingLeft=4;spacingRight=4;overflow=hidden;rotatable=0;points=[[0,0.5],[1,0.5]];portConstraint=eastwest;" vertex="1" parent="IunxA3ghlTLjCbQmhph9-3">
          <mxGeometry y="74" width="320" height="24" as="geometry" />
        </mxCell>
        <mxCell id="IunxA3ghlTLjCbQmhph9-5" value="+ getCategories() : ArrayList&lt;Movie&gt;" style="text;strokeColor=none;fillColor=none;align=left;verticalAlign=top;spacingLeft=4;spacingRight=4;overflow=hidden;rotatable=0;points=[[0,0.5],[1,0.5]];portConstraint=eastwest;" vertex="1" parent="IunxA3ghlTLjCbQmhph9-3">
          <mxGeometry y="98" width="320" height="24" as="geometry" />
        </mxCell>
        <mxCell id="IunxA3ghlTLjCbQmhph9-6" value="+ saveData(Rating) : void" style="text;strokeColor=none;fillColor=none;align=left;verticalAlign=top;spacingLeft=4;spacingRight=4;overflow=hidden;rotatable=0;points=[[0,0.5],[1,0.5]];portConstraint=eastwest;" vertex="1" parent="IunxA3ghlTLjCbQmhph9-3">
          <mxGeometry y="122" width="320" height="27" as="geometry" />
        </mxCell>
        <mxCell id="IunxA3ghlTLjCbQmhph9-7" value="+ saveData(Category) : void" style="text;strokeColor=none;fillColor=none;align=left;verticalAlign=top;spacingLeft=4;spacingRight=4;overflow=hidden;rotatable=0;points=[[0,0.5],[1,0.5]];portConstraint=eastwest;" vertex="1" parent="IunxA3ghlTLjCbQmhph9-3">
          <mxGeometry y="149" width="320" height="27" as="geometry" />
        </mxCell>
        <mxCell id="IunxA3ghlTLjCbQmhph9-8" value="+ removeData(Rating) : void" style="text;strokeColor=none;fillColor=none;align=left;verticalAlign=top;spacingLeft=4;spacingRight=4;overflow=hidden;rotatable=0;points=[[0,0.5],[1,0.5]];portConstraint=eastwest;" vertex="1" parent="IunxA3ghlTLjCbQmhph9-3">
          <mxGeometry y="176" width="320" height="27" as="geometry" />
        </mxCell>
        <mxCell id="IunxA3ghlTLjCbQmhph9-9" value="+ removeData(Category) : void" style="text;strokeColor=none;fillColor=none;align=left;verticalAlign=top;spacingLeft=4;spacingRight=4;overflow=hidden;rotatable=0;points=[[0,0.5],[1,0.5]];portConstraint=eastwest;" vertex="1" parent="IunxA3ghlTLjCbQmhph9-3">
          <mxGeometry y="203" width="320" height="27" as="geometry" />
        </mxCell>
        <mxCell id="IunxA3ghlTLjCbQmhph9-13" value="Movie" style="swimlane;fontStyle=1;align=center;verticalAlign=top;childLayout=stackLayout;horizontal=1;startSize=26;horizontalStack=0;resizeParent=1;resizeParentMax=0;resizeLast=0;collapsible=1;marginBottom=0;" vertex="1" parent="1">
          <mxGeometry x="1230" y="630" width="190" height="268" as="geometry" />
        </mxCell>
        <mxCell id="IunxA3ghlTLjCbQmhph9-14" value="- rating: Rating" style="text;strokeColor=none;fillColor=none;align=left;verticalAlign=top;spacingLeft=4;spacingRight=4;overflow=hidden;rotatable=0;points=[[0,0.5],[1,0.5]];portConstraint=eastwest;" vertex="1" parent="IunxA3ghlTLjCbQmhph9-13">
          <mxGeometry y="26" width="190" height="26" as="geometry" />
        </mxCell>
        <mxCell id="IunxA3ghlTLjCbQmhph9-27" value="- sceneriDecription : String" style="text;strokeColor=none;fillColor=none;align=left;verticalAlign=top;spacingLeft=4;spacingRight=4;overflow=hidden;rotatable=0;points=[[0,0.5],[1,0.5]];portConstraint=eastwest;" vertex="1" parent="IunxA3ghlTLjCbQmhph9-13">
          <mxGeometry y="52" width="190" height="26" as="geometry" />
        </mxCell>
        <mxCell id="IunxA3ghlTLjCbQmhph9-28" value="- characterDescription: String" style="text;strokeColor=none;fillColor=none;align=left;verticalAlign=top;spacingLeft=4;spacingRight=4;overflow=hidden;rotatable=0;points=[[0,0.5],[1,0.5]];portConstraint=eastwest;" vertex="1" parent="IunxA3ghlTLjCbQmhph9-13">
          <mxGeometry y="78" width="190" height="26" as="geometry" />
        </mxCell>
        <mxCell id="IunxA3ghlTLjCbQmhph9-29" value="- storyDescription: String" style="text;strokeColor=none;fillColor=none;align=left;verticalAlign=top;spacingLeft=4;spacingRight=4;overflow=hidden;rotatable=0;points=[[0,0.5],[1,0.5]];portConstraint=eastwest;" vertex="1" parent="IunxA3ghlTLjCbQmhph9-13">
          <mxGeometry y="104" width="190" height="26" as="geometry" />
        </mxCell>
        <mxCell id="IunxA3ghlTLjCbQmhph9-30" value="- isFavourite: Bool" style="text;strokeColor=none;fillColor=none;align=left;verticalAlign=top;spacingLeft=4;spacingRight=4;overflow=hidden;rotatable=0;points=[[0,0.5],[1,0.5]];portConstraint=eastwest;" vertex="1" parent="IunxA3ghlTLjCbQmhph9-13">
          <mxGeometry y="130" width="190" height="26" as="geometry" />
        </mxCell>
        <mxCell id="IunxA3ghlTLjCbQmhph9-47" value="- category : Category" style="text;strokeColor=none;fillColor=none;align=left;verticalAlign=top;spacingLeft=4;spacingRight=4;overflow=hidden;rotatable=0;points=[[0,0.5],[1,0.5]];portConstraint=eastwest;" vertex="1" parent="IunxA3ghlTLjCbQmhph9-13">
          <mxGeometry y="156" width="190" height="26" as="geometry" />
        </mxCell>
        <mxCell id="IunxA3ghlTLjCbQmhph9-71" value="- isSeries: Bool" style="text;strokeColor=none;fillColor=none;align=left;verticalAlign=top;spacingLeft=4;spacingRight=4;overflow=hidden;rotatable=0;points=[[0,0.5],[1,0.5]];portConstraint=eastwest;" vertex="1" parent="IunxA3ghlTLjCbQmhph9-13">
          <mxGeometry y="182" width="190" height="26" as="geometry" />
        </mxCell>
        <mxCell id="IunxA3ghlTLjCbQmhph9-42" value="- date: String " style="text;strokeColor=none;fillColor=none;align=left;verticalAlign=top;spacingLeft=4;spacingRight=4;overflow=hidden;rotatable=0;points=[[0,0.5],[1,0.5]];portConstraint=eastwest;" vertex="1" parent="IunxA3ghlTLjCbQmhph9-13">
          <mxGeometry y="208" width="190" height="26" as="geometry" />
        </mxCell>
        <mxCell id="IunxA3ghlTLjCbQmhph9-15" value="" style="line;strokeWidth=1;fillColor=none;align=left;verticalAlign=middle;spacingTop=-1;spacingLeft=3;spacingRight=3;rotatable=0;labelPosition=right;points=[];portConstraint=eastwest;" vertex="1" parent="IunxA3ghlTLjCbQmhph9-13">
          <mxGeometry y="234" width="190" height="8" as="geometry" />
        </mxCell>
        <mxCell id="IunxA3ghlTLjCbQmhph9-53" value="+ toString() : String" style="text;strokeColor=none;fillColor=none;align=left;verticalAlign=top;spacingLeft=4;spacingRight=4;overflow=hidden;rotatable=0;points=[[0,0.5],[1,0.5]];portConstraint=eastwest;" vertex="1" parent="IunxA3ghlTLjCbQmhph9-13">
          <mxGeometry y="242" width="190" height="26" as="geometry" />
        </mxCell>
        <mxCell id="IunxA3ghlTLjCbQmhph9-17" value="Rating" style="swimlane;fontStyle=1;align=center;verticalAlign=top;childLayout=stackLayout;horizontal=1;startSize=26;horizontalStack=0;resizeParent=1;resizeParentMax=0;resizeLast=0;collapsible=1;marginBottom=0;" vertex="1" parent="1">
          <mxGeometry x="1720" y="800" width="160" height="164" as="geometry" />
        </mxCell>
        <mxCell id="IunxA3ghlTLjCbQmhph9-18" value="- overAllscore: Double" style="text;strokeColor=none;fillColor=none;align=left;verticalAlign=top;spacingLeft=4;spacingRight=4;overflow=hidden;rotatable=0;points=[[0,0.5],[1,0.5]];portConstraint=eastwest;" vertex="1" parent="IunxA3ghlTLjCbQmhph9-17">
          <mxGeometry y="26" width="160" height="26" as="geometry" />
        </mxCell>
        <mxCell id="IunxA3ghlTLjCbQmhph9-24" value="- sceneriScore: Double" style="text;strokeColor=none;fillColor=none;align=left;verticalAlign=top;spacingLeft=4;spacingRight=4;overflow=hidden;rotatable=0;points=[[0,0.5],[1,0.5]];portConstraint=eastwest;" vertex="1" parent="IunxA3ghlTLjCbQmhph9-17">
          <mxGeometry y="52" width="160" height="26" as="geometry" />
        </mxCell>
        <mxCell id="IunxA3ghlTLjCbQmhph9-25" value="- charactersScore: Double" style="text;strokeColor=none;fillColor=none;align=left;verticalAlign=top;spacingLeft=4;spacingRight=4;overflow=hidden;rotatable=0;points=[[0,0.5],[1,0.5]];portConstraint=eastwest;" vertex="1" parent="IunxA3ghlTLjCbQmhph9-17">
          <mxGeometry y="78" width="160" height="26" as="geometry" />
        </mxCell>
        <mxCell id="IunxA3ghlTLjCbQmhph9-26" value="- storyScore: Double" style="text;strokeColor=none;fillColor=none;align=left;verticalAlign=top;spacingLeft=4;spacingRight=4;overflow=hidden;rotatable=0;points=[[0,0.5],[1,0.5]];portConstraint=eastwest;" vertex="1" parent="IunxA3ghlTLjCbQmhph9-17">
          <mxGeometry y="104" width="160" height="26" as="geometry" />
        </mxCell>
        <mxCell id="IunxA3ghlTLjCbQmhph9-19" value="" style="line;strokeWidth=1;fillColor=none;align=left;verticalAlign=middle;spacingTop=-1;spacingLeft=3;spacingRight=3;rotatable=0;labelPosition=right;points=[];portConstraint=eastwest;" vertex="1" parent="IunxA3ghlTLjCbQmhph9-17">
          <mxGeometry y="130" width="160" height="8" as="geometry" />
        </mxCell>
        <mxCell id="IunxA3ghlTLjCbQmhph9-20" value="+ method(type): type" style="text;strokeColor=none;fillColor=none;align=left;verticalAlign=top;spacingLeft=4;spacingRight=4;overflow=hidden;rotatable=0;points=[[0,0.5],[1,0.5]];portConstraint=eastwest;" vertex="1" parent="IunxA3ghlTLjCbQmhph9-17">
          <mxGeometry y="138" width="160" height="26" as="geometry" />
        </mxCell>
        <mxCell id="IunxA3ghlTLjCbQmhph9-54" value="Category" style="swimlane;fontStyle=1;align=center;verticalAlign=top;childLayout=stackLayout;horizontal=1;startSize=26;horizontalStack=0;resizeParent=1;resizeParentMax=0;resizeLast=0;collapsible=1;marginBottom=0;" vertex="1" parent="1">
          <mxGeometry x="1370" y="974" width="200" height="242" as="geometry" />
        </mxCell>
        <mxCell id="IunxA3ghlTLjCbQmhph9-55" value="- name : String" style="text;strokeColor=none;fillColor=none;align=left;verticalAlign=top;spacingLeft=4;spacingRight=4;overflow=hidden;rotatable=0;points=[[0,0.5],[1,0.5]];portConstraint=eastwest;" vertex="1" parent="IunxA3ghlTLjCbQmhph9-54">
          <mxGeometry y="26" width="200" height="26" as="geometry" />
        </mxCell>
        <mxCell id="IunxA3ghlTLjCbQmhph9-56" value="- color : String" style="text;strokeColor=none;fillColor=none;align=left;verticalAlign=top;spacingLeft=4;spacingRight=4;overflow=hidden;rotatable=0;points=[[0,0.5],[1,0.5]];portConstraint=eastwest;" vertex="1" parent="IunxA3ghlTLjCbQmhph9-54">
          <mxGeometry y="52" width="200" height="26" as="geometry" />
        </mxCell>
        <mxCell id="IunxA3ghlTLjCbQmhph9-58" value="" style="line;strokeWidth=1;fillColor=none;align=left;verticalAlign=middle;spacingTop=-1;spacingLeft=3;spacingRight=3;rotatable=0;labelPosition=right;points=[];portConstraint=eastwest;" vertex="1" parent="IunxA3ghlTLjCbQmhph9-54">
          <mxGeometry y="78" width="200" height="8" as="geometry" />
        </mxCell>
        <mxCell id="IunxA3ghlTLjCbQmhph9-59" value="+ Category(String, String)" style="text;strokeColor=none;fillColor=none;align=left;verticalAlign=top;spacingLeft=4;spacingRight=4;overflow=hidden;rotatable=0;points=[[0,0.5],[1,0.5]];portConstraint=eastwest;" vertex="1" parent="IunxA3ghlTLjCbQmhph9-54">
          <mxGeometry y="86" width="200" height="26" as="geometry" />
        </mxCell>
        <mxCell id="IunxA3ghlTLjCbQmhph9-60" value="+ movieBelongs() : boolean" style="text;strokeColor=none;fillColor=none;align=left;verticalAlign=top;spacingLeft=4;spacingRight=4;overflow=hidden;rotatable=0;points=[[0,0.5],[1,0.5]];portConstraint=eastwest;" vertex="1" parent="IunxA3ghlTLjCbQmhph9-54">
          <mxGeometry y="112" width="200" height="26" as="geometry" />
        </mxCell>
        <mxCell id="IunxA3ghlTLjCbQmhph9-61" value="+ equals(Category) : boolean" style="text;strokeColor=none;fillColor=none;align=left;verticalAlign=top;spacingLeft=4;spacingRight=4;overflow=hidden;rotatable=0;points=[[0,0.5],[1,0.5]];portConstraint=eastwest;" vertex="1" parent="IunxA3ghlTLjCbQmhph9-54">
          <mxGeometry y="138" width="200" height="26" as="geometry" />
        </mxCell>
        <mxCell id="IunxA3ghlTLjCbQmhph9-62" value="+ getName() : String" style="text;strokeColor=none;fillColor=none;align=left;verticalAlign=top;spacingLeft=4;spacingRight=4;overflow=hidden;rotatable=0;points=[[0,0.5],[1,0.5]];portConstraint=eastwest;" vertex="1" parent="IunxA3ghlTLjCbQmhph9-54">
          <mxGeometry y="164" width="200" height="26" as="geometry" />
        </mxCell>
        <mxCell id="IunxA3ghlTLjCbQmhph9-63" value="+ getColor() : String" style="text;strokeColor=none;fillColor=none;align=left;verticalAlign=top;spacingLeft=4;spacingRight=4;overflow=hidden;rotatable=0;points=[[0,0.5],[1,0.5]];portConstraint=eastwest;" vertex="1" parent="IunxA3ghlTLjCbQmhph9-54">
          <mxGeometry y="190" width="200" height="26" as="geometry" />
        </mxCell>
        <mxCell id="IunxA3ghlTLjCbQmhph9-64" value="+ toString() : String" style="text;strokeColor=none;fillColor=none;align=left;verticalAlign=top;spacingLeft=4;spacingRight=4;overflow=hidden;rotatable=0;points=[[0,0.5],[1,0.5]];portConstraint=eastwest;" vertex="1" parent="IunxA3ghlTLjCbQmhph9-54">
          <mxGeometry y="216" width="200" height="26" as="geometry" />
        </mxCell>
        <mxCell id="IunxA3ghlTLjCbQmhph9-74" value="CategoryModel" style="swimlane;fontStyle=1;align=center;verticalAlign=top;childLayout=stackLayout;horizontal=1;startSize=26;horizontalStack=0;resizeParent=1;resizeParentMax=0;resizeLast=0;collapsible=1;marginBottom=0;" vertex="1" parent="1">
          <mxGeometry x="1530" y="650" width="160" height="86" as="geometry" />
        </mxCell>
        <mxCell id="IunxA3ghlTLjCbQmhph9-75" value="+ field: type" style="text;strokeColor=none;fillColor=none;align=left;verticalAlign=top;spacingLeft=4;spacingRight=4;overflow=hidden;rotatable=0;points=[[0,0.5],[1,0.5]];portConstraint=eastwest;" vertex="1" parent="IunxA3ghlTLjCbQmhph9-74">
          <mxGeometry y="26" width="160" height="26" as="geometry" />
        </mxCell>
        <mxCell id="IunxA3ghlTLjCbQmhph9-76" value="" style="line;strokeWidth=1;fillColor=none;align=left;verticalAlign=middle;spacingTop=-1;spacingLeft=3;spacingRight=3;rotatable=0;labelPosition=right;points=[];portConstraint=eastwest;" vertex="1" parent="IunxA3ghlTLjCbQmhph9-74">
          <mxGeometry y="52" width="160" height="8" as="geometry" />
        </mxCell>
        <mxCell id="IunxA3ghlTLjCbQmhph9-77" value="+ method(type): type" style="text;strokeColor=none;fillColor=none;align=left;verticalAlign=top;spacingLeft=4;spacingRight=4;overflow=hidden;rotatable=0;points=[[0,0.5],[1,0.5]];portConstraint=eastwest;" vertex="1" parent="IunxA3ghlTLjCbQmhph9-74">
          <mxGeometry y="60" width="160" height="26" as="geometry" />
        </mxCell>
        <mxCell id="IunxA3ghlTLjCbQmhph9-78" value="&lt;b&gt;CategoryModel&lt;/b&gt;" style="html=1;" vertex="1" parent="1">
          <mxGeometry x="920" y="640" width="160" height="30" as="geometry" />
        </mxCell>
        <mxCell id="IunxA3ghlTLjCbQmhph9-82" value="DatabaseManager" style="swimlane;fontStyle=1;align=center;verticalAlign=top;childLayout=stackLayout;horizontal=1;startSize=26;horizontalStack=0;resizeParent=1;resizeParentMax=0;resizeLast=0;collapsible=1;marginBottom=0;" vertex="1" parent="1">
          <mxGeometry x="835" y="1346" width="320" height="327" as="geometry">
            <mxRectangle x="440" y="760" width="140" height="26" as="alternateBounds" />
          </mxGeometry>
        </mxCell>
        <mxCell id="IunxA3ghlTLjCbQmhph9-83" value="" style="line;strokeWidth=1;fillColor=none;align=left;verticalAlign=middle;spacingTop=-1;spacingLeft=3;spacingRight=3;rotatable=0;labelPosition=right;points=[];portConstraint=eastwest;" vertex="1" parent="IunxA3ghlTLjCbQmhph9-82">
          <mxGeometry y="26" width="320" height="8" as="geometry" />
        </mxCell>
        <mxCell id="IunxA3ghlTLjCbQmhph9-84" value="+ DatabaseManager(Context) : void" style="text;strokeColor=none;fillColor=none;align=left;verticalAlign=top;spacingLeft=4;spacingRight=4;overflow=hidden;rotatable=0;points=[[0,0.5],[1,0.5]];portConstraint=eastwest;" vertex="1" parent="IunxA3ghlTLjCbQmhph9-82">
          <mxGeometry y="34" width="320" height="26" as="geometry" />
        </mxCell>
        <mxCell id="IunxA3ghlTLjCbQmhph9-85" value="+ DatabaseManager(Context, String) : void" style="text;strokeColor=none;fillColor=none;align=left;verticalAlign=top;spacingLeft=4;spacingRight=4;overflow=hidden;rotatable=0;points=[[0,0.5],[1,0.5]];portConstraint=eastwest;" vertex="1" parent="IunxA3ghlTLjCbQmhph9-82">
          <mxGeometry y="60" width="320" height="26" as="geometry" />
        </mxCell>
        <mxCell id="IunxA3ghlTLjCbQmhph9-86" value="+ onConfigure(SQLiteDatabase) : void" style="text;strokeColor=none;fillColor=none;align=left;verticalAlign=top;spacingLeft=4;spacingRight=4;overflow=hidden;rotatable=0;points=[[0,0.5],[1,0.5]];portConstraint=eastwest;" vertex="1" parent="IunxA3ghlTLjCbQmhph9-82">
          <mxGeometry y="86" width="320" height="27" as="geometry" />
        </mxCell>
        <mxCell id="IunxA3ghlTLjCbQmhph9-87" value="+ onCreate(SQLiteDatabase) : void" style="text;strokeColor=none;fillColor=none;align=left;verticalAlign=top;spacingLeft=4;spacingRight=4;overflow=hidden;rotatable=0;points=[[0,0.5],[1,0.5]];portConstraint=eastwest;" vertex="1" parent="IunxA3ghlTLjCbQmhph9-82">
          <mxGeometry y="113" width="320" height="27" as="geometry" />
        </mxCell>
        <mxCell id="IunxA3ghlTLjCbQmhph9-88" value="+ onUprade(SQLiteDatabase, int, int) : void" style="text;strokeColor=none;fillColor=none;align=left;verticalAlign=top;spacingLeft=4;spacingRight=4;overflow=hidden;rotatable=0;points=[[0,0.5],[1,0.5]];portConstraint=eastwest;" vertex="1" parent="IunxA3ghlTLjCbQmhph9-82">
          <mxGeometry y="140" width="320" height="27" as="geometry" />
        </mxCell>
        <mxCell id="IunxA3ghlTLjCbQmhph9-89" value="+ saveData(FinancialTransaction) : void" style="text;strokeColor=none;fillColor=none;align=left;verticalAlign=top;spacingLeft=4;spacingRight=4;overflow=hidden;rotatable=0;points=[[0,0.5],[1,0.5]];portConstraint=eastwest;" vertex="1" parent="IunxA3ghlTLjCbQmhph9-82">
          <mxGeometry y="167" width="320" height="27" as="geometry" />
        </mxCell>
        <mxCell id="IunxA3ghlTLjCbQmhph9-90" value="+ saveData(Category) : void" style="text;strokeColor=none;fillColor=none;align=left;verticalAlign=top;spacingLeft=4;spacingRight=4;overflow=hidden;rotatable=0;points=[[0,0.5],[1,0.5]];portConstraint=eastwest;" vertex="1" parent="IunxA3ghlTLjCbQmhph9-82">
          <mxGeometry y="194" width="320" height="27" as="geometry" />
        </mxCell>
        <mxCell id="IunxA3ghlTLjCbQmhph9-91" value="+ removeData(FinancialTransaction) : void" style="text;strokeColor=none;fillColor=none;align=left;verticalAlign=top;spacingLeft=4;spacingRight=4;overflow=hidden;rotatable=0;points=[[0,0.5],[1,0.5]];portConstraint=eastwest;" vertex="1" parent="IunxA3ghlTLjCbQmhph9-82">
          <mxGeometry y="221" width="320" height="27" as="geometry" />
        </mxCell>
        <mxCell id="IunxA3ghlTLjCbQmhph9-92" value="+ removeData(Category) : void" style="text;strokeColor=none;fillColor=none;align=left;verticalAlign=top;spacingLeft=4;spacingRight=4;overflow=hidden;rotatable=0;points=[[0,0.5],[1,0.5]];portConstraint=eastwest;" vertex="1" parent="IunxA3ghlTLjCbQmhph9-82">
          <mxGeometry y="248" width="320" height="27" as="geometry" />
        </mxCell>
        <mxCell id="IunxA3ghlTLjCbQmhph9-93" value="+ getCategories(): ArrayList&lt;Category&gt;" style="text;strokeColor=none;fillColor=none;align=left;verticalAlign=top;spacingLeft=4;spacingRight=4;overflow=hidden;rotatable=0;points=[[0,0.5],[1,0.5]];portConstraint=eastwest;" vertex="1" parent="IunxA3ghlTLjCbQmhph9-82">
          <mxGeometry y="275" width="320" height="25" as="geometry" />
        </mxCell>
        <mxCell id="IunxA3ghlTLjCbQmhph9-94" value="+ getFinancialTransactions(): ArrayList&lt;FinancialTransaction&gt;" style="text;strokeColor=none;fillColor=none;align=left;verticalAlign=top;spacingLeft=4;spacingRight=4;overflow=hidden;rotatable=0;points=[[0,0.5],[1,0.5]];portConstraint=eastwest;" vertex="1" parent="IunxA3ghlTLjCbQmhph9-82">
          <mxGeometry y="300" width="320" height="27" as="geometry" />
        </mxCell>
        <mxCell id="IunxA3ghlTLjCbQmhph9-95" value="Extends" style="endArrow=block;endSize=16;endFill=0;html=1;rounded=0;exitX=0.5;exitY=0;exitDx=0;exitDy=0;entryX=0.5;entryY=1;entryDx=0;entryDy=0;" edge="1" parent="1" source="IunxA3ghlTLjCbQmhph9-82" target="IunxA3ghlTLjCbQmhph9-96">
          <mxGeometry width="160" relative="1" as="geometry">
            <mxPoint x="1335" y="1016" as="sourcePoint" />
            <mxPoint x="1435" y="906" as="targetPoint" />
          </mxGeometry>
        </mxCell>
        <mxCell id="IunxA3ghlTLjCbQmhph9-96" value="&lt;b&gt;SQLiteOpenHelper&lt;/b&gt;" style="html=1;" vertex="1" parent="1">
          <mxGeometry x="1272.5" y="1230" width="110" height="50" as="geometry" />
        </mxCell>
        <mxCell id="IunxA3ghlTLjCbQmhph9-97" value="" style="endArrow=block;dashed=1;endFill=0;endSize=12;html=1;rounded=0;exitX=0.5;exitY=0;exitDx=0;exitDy=0;" edge="1" parent="1" source="IunxA3ghlTLjCbQmhph9-82">
          <mxGeometry width="160" relative="1" as="geometry">
            <mxPoint x="600" y="1200" as="sourcePoint" />
            <mxPoint x="995" y="1230" as="targetPoint" />
          </mxGeometry>
        </mxCell>
        <mxCell id="IunxA3ghlTLjCbQmhph9-99" value="RatingModel" style="swimlane;fontStyle=1;align=center;verticalAlign=top;childLayout=stackLayout;horizontal=1;startSize=26;horizontalStack=0;resizeParent=1;resizeParentMax=0;resizeLast=0;collapsible=1;marginBottom=0;" vertex="1" parent="1">
          <mxGeometry x="1910" y="650" width="160" height="86" as="geometry" />
        </mxCell>
        <mxCell id="IunxA3ghlTLjCbQmhph9-100" value="+ field: type" style="text;strokeColor=none;fillColor=none;align=left;verticalAlign=top;spacingLeft=4;spacingRight=4;overflow=hidden;rotatable=0;points=[[0,0.5],[1,0.5]];portConstraint=eastwest;" vertex="1" parent="IunxA3ghlTLjCbQmhph9-99">
          <mxGeometry y="26" width="160" height="26" as="geometry" />
        </mxCell>
        <mxCell id="IunxA3ghlTLjCbQmhph9-101" value="" style="line;strokeWidth=1;fillColor=none;align=left;verticalAlign=middle;spacingTop=-1;spacingLeft=3;spacingRight=3;rotatable=0;labelPosition=right;points=[];portConstraint=eastwest;" vertex="1" parent="IunxA3ghlTLjCbQmhph9-99">
          <mxGeometry y="52" width="160" height="8" as="geometry" />
        </mxCell>
        <mxCell id="IunxA3ghlTLjCbQmhph9-102" value="+ method(type): type" style="text;strokeColor=none;fillColor=none;align=left;verticalAlign=top;spacingLeft=4;spacingRight=4;overflow=hidden;rotatable=0;points=[[0,0.5],[1,0.5]];portConstraint=eastwest;" vertex="1" parent="IunxA3ghlTLjCbQmhph9-99">
          <mxGeometry y="60" width="160" height="26" as="geometry" />
        </mxCell>
      </root>
    </mxGraphModel>
  </diagram>
</mxfile>
